<?xml version="1.0" encoding="utf-8"?>
<!-- Generator: Adobe Illustrator 16.0.0, SVG Export Plug-In . SVG Version: 6.00 Build 0)  -->
<!DOCTYPE svg PUBLIC "-//W3C//DTD SVG 1.1//EN" "http://www.w3.org/Graphics/SVG/1.1/DTD/svg11.dtd">
<svg version="1.1" id="圖層_1" xmlns="http://www.w3.org/2000/svg" xmlns:xlink="http://www.w3.org/1999/xlink" x="0px" y="0px"
	 width="283.46px" height="283.46px" viewBox="0 0 283.46 283.46" enable-background="new 0 0 283.46 283.46" xml:space="preserve">
<path fill="#00633E" d="M190.47,126.285l16.991-49.02h52.365C236.805,35.973,194.059,7.543,143.152,7.543
	C68.507,7.543,7.543,65.568,7.543,142.047c0,8.576,0.855,19.24,2.39,27.416h80.003L73.412,217.71H29.943
	c24.185,36.255,63.018,58.872,112.736,58.872c74.597,0,133.904-62.797,133.904-133.873c0-5.666-0.371-9.727-0.371-16.424H190.47z
	 M61.157,125.298c0,0-10.083,1.567-5.899-13.787l9.43-25.888c0,0,4.191-7.79,16.17-7.79l44.454-0.034l-17.693,46.821L61.157,125.298
	z M218.531,182.484c0,0-2.424,6.953-8.042,20.865c-5.633,13.96-10.775,13.533-15.581,13.533c-4.81,0-103.87,0.481-103.87,0.481
	s-1.855-0.206-1.031-3.679c0.823-3.471,56.225-153.84,56.225-153.84l52.52,0.203l-40.575,109.713l51.69-0.408
	C224.901,169.354,218.531,182.484,218.531,182.484"/>
</svg>
